<mxfile host="65bd71144e">
    <diagram id="7Q-BXX20lRpcUBixIo0L" name="PÃ¡gina-1">
        <mxGraphModel dx="1046" dy="668" grid="1" gridSize="10" guides="1" tooltips="1" connect="1" arrows="1" fold="1" page="1" pageScale="1" pageWidth="850" pageHeight="1100" background="#FFFFFF" math="0" shadow="0">
            <root>
                <mxCell id="0"/>
                <mxCell id="1" parent="0"/>
                <mxCell id="10" value="Accede" style="shape=rhombus;perimeter=rhombusPerimeter;whiteSpace=wrap;html=1;align=center;fillColor=#00C2C2;strokeColor=#808080;" vertex="1" parent="1">
                    <mxGeometry x="514" y="330" width="120" height="60" as="geometry"/>
                </mxCell>
                <mxCell id="13" value="Cliente" style="rounded=1;arcSize=10;whiteSpace=wrap;html=1;align=center;fillColor=#000066;fontColor=#ffffff;strokeColor=#4D4D4D;" vertex="1" parent="1">
                    <mxGeometry x="374" y="140" width="100" height="40" as="geometry"/>
                </mxCell>
                <mxCell id="14" value="Articulo" style="rounded=1;arcSize=10;whiteSpace=wrap;html=1;align=center;fillColor=#000066;fontColor=#ffffff;strokeColor=#4D4D4D;" vertex="1" parent="1">
                    <mxGeometry x="54" y="540" width="100" height="40" as="geometry"/>
                </mxCell>
                <mxCell id="15" value="Vendedor" style="rounded=1;arcSize=10;whiteSpace=wrap;html=1;align=center;fillColor=#000066;fontColor=#ffffff;strokeColor=#4D4D4D;" vertex="1" parent="1">
                    <mxGeometry x="374" y="340" width="100" height="40" as="geometry"/>
                </mxCell>
                <mxCell id="16" value="Factura" style="rounded=1;arcSize=10;whiteSpace=wrap;html=1;align=center;fillColor=#000066;fontColor=#ffffff;strokeColor=#4D4D4D;" vertex="1" parent="1">
                    <mxGeometry x="54" y="340" width="100" height="40" as="geometry"/>
                </mxCell>
                <mxCell id="17" value="Usuario" style="rounded=1;arcSize=10;whiteSpace=wrap;html=1;align=center;fillColor=#000066;fontColor=#ffffff;strokeColor=#4D4D4D;" vertex="1" parent="1">
                    <mxGeometry x="674" y="340" width="100" height="40" as="geometry"/>
                </mxCell>
                <mxCell id="18" value="" style="endArrow=none;html=1;rounded=0;exitX=0;exitY=1;exitDx=0;exitDy=0;entryX=0.5;entryY=0;entryDx=0;entryDy=0;strokeColor=#4D4D4D;strokeWidth=2;" edge="1" parent="1" source="34" target="16">
                    <mxGeometry relative="1" as="geometry">
                        <mxPoint x="174" y="100" as="sourcePoint"/>
                        <mxPoint x="124" y="220" as="targetPoint"/>
                    </mxGeometry>
                </mxCell>
                <mxCell id="19" value="N" style="resizable=0;html=1;align=right;verticalAlign=bottom;fontColor=#333333;" connectable="0" vertex="1" parent="18">
                    <mxGeometry x="1" relative="1" as="geometry">
                        <mxPoint x="10" y="-5" as="offset"/>
                    </mxGeometry>
                </mxCell>
                <mxCell id="20" value="" style="endArrow=none;html=1;rounded=0;entryX=0;entryY=0.5;entryDx=0;entryDy=0;exitX=1;exitY=0.5;exitDx=0;exitDy=0;strokeColor=#4D4D4D;strokeWidth=2;" edge="1" parent="1" source="10" target="17">
                    <mxGeometry relative="1" as="geometry">
                        <mxPoint x="394" y="430" as="sourcePoint"/>
                        <mxPoint x="594" y="420" as="targetPoint"/>
                    </mxGeometry>
                </mxCell>
                <mxCell id="21" value="N" style="resizable=0;html=1;align=right;verticalAlign=bottom;fontColor=#333333;" connectable="0" vertex="1" parent="20">
                    <mxGeometry x="1" relative="1" as="geometry">
                        <mxPoint x="-10" as="offset"/>
                    </mxGeometry>
                </mxCell>
                <mxCell id="23" value="Representa" style="shape=rhombus;perimeter=rhombusPerimeter;whiteSpace=wrap;html=1;align=center;fillColor=#00C2C2;strokeColor=#808080;" vertex="1" parent="1">
                    <mxGeometry x="364" y="240" width="120" height="60" as="geometry"/>
                </mxCell>
                <mxCell id="24" value="" style="endArrow=none;html=1;rounded=0;entryX=0.5;entryY=1;entryDx=0;entryDy=0;exitX=0.5;exitY=0;exitDx=0;exitDy=0;strokeColor=#4D4D4D;strokeWidth=2;" edge="1" parent="1" source="23" target="13">
                    <mxGeometry relative="1" as="geometry">
                        <mxPoint x="374" y="250" as="sourcePoint"/>
                        <mxPoint x="534" y="250" as="targetPoint"/>
                    </mxGeometry>
                </mxCell>
                <mxCell id="25" value="N" style="resizable=0;html=1;align=right;verticalAlign=bottom;fontColor=#333333;" connectable="0" vertex="1" parent="24">
                    <mxGeometry x="1" relative="1" as="geometry">
                        <mxPoint x="-10" y="20" as="offset"/>
                    </mxGeometry>
                </mxCell>
                <mxCell id="26" value="" style="endArrow=none;html=1;rounded=0;entryX=0.5;entryY=0;entryDx=0;entryDy=0;exitX=0.5;exitY=1;exitDx=0;exitDy=0;strokeColor=#4D4D4D;strokeWidth=2;" edge="1" parent="1" source="23" target="15">
                    <mxGeometry relative="1" as="geometry">
                        <mxPoint x="374" y="250" as="sourcePoint"/>
                        <mxPoint x="534" y="250" as="targetPoint"/>
                    </mxGeometry>
                </mxCell>
                <mxCell id="27" value="" style="endArrow=none;html=1;rounded=0;exitX=0;exitY=0.5;exitDx=0;exitDy=0;entryX=1;entryY=0.5;entryDx=0;entryDy=0;strokeColor=#4D4D4D;strokeWidth=2;" edge="1" parent="1" source="10" target="15">
                    <mxGeometry relative="1" as="geometry">
                        <mxPoint x="484" y="440" as="sourcePoint"/>
                        <mxPoint x="454" y="420" as="targetPoint"/>
                    </mxGeometry>
                </mxCell>
                <mxCell id="28" value="1" style="resizable=0;html=1;align=right;verticalAlign=bottom;fontColor=#333333;" connectable="0" vertex="1" parent="27">
                    <mxGeometry x="1" relative="1" as="geometry">
                        <mxPoint x="20" as="offset"/>
                    </mxGeometry>
                </mxCell>
                <mxCell id="29" value="Elabora" style="shape=rhombus;perimeter=rhombusPerimeter;whiteSpace=wrap;html=1;align=center;fillColor=#00C2C2;strokeColor=#808080;" vertex="1" parent="1">
                    <mxGeometry x="204" y="330" width="120" height="60" as="geometry"/>
                </mxCell>
                <mxCell id="30" value="" style="endArrow=none;html=1;rounded=0;entryX=0;entryY=0.5;entryDx=0;entryDy=0;exitX=1;exitY=0.5;exitDx=0;exitDy=0;strokeColor=#4D4D4D;strokeWidth=2;" edge="1" parent="1" source="29" target="15">
                    <mxGeometry relative="1" as="geometry">
                        <mxPoint x="174" y="490" as="sourcePoint"/>
                        <mxPoint x="334" y="490" as="targetPoint"/>
                    </mxGeometry>
                </mxCell>
                <mxCell id="31" value="1" style="resizable=0;html=1;align=right;verticalAlign=bottom;fontColor=#333333;" connectable="0" vertex="1" parent="30">
                    <mxGeometry x="1" relative="1" as="geometry">
                        <mxPoint x="-10" y="20" as="offset"/>
                    </mxGeometry>
                </mxCell>
                <mxCell id="32" value="" style="endArrow=none;html=1;rounded=0;entryX=1;entryY=0.5;entryDx=0;entryDy=0;exitX=0;exitY=0.5;exitDx=0;exitDy=0;strokeColor=#4D4D4D;strokeWidth=2;" edge="1" parent="1" source="29" target="16">
                    <mxGeometry relative="1" as="geometry">
                        <mxPoint x="174" y="470" as="sourcePoint"/>
                        <mxPoint x="334" y="470" as="targetPoint"/>
                    </mxGeometry>
                </mxCell>
                <mxCell id="33" value="N" style="resizable=0;html=1;align=right;verticalAlign=bottom;fontColor=#333333;" connectable="0" vertex="1" parent="32">
                    <mxGeometry x="1" relative="1" as="geometry">
                        <mxPoint x="20" y="20" as="offset"/>
                    </mxGeometry>
                </mxCell>
                <mxCell id="34" value="Compra" style="shape=rhombus;perimeter=rhombusPerimeter;whiteSpace=wrap;html=1;align=center;fillColor=#00C2C2;strokeColor=#808080;" vertex="1" parent="1">
                    <mxGeometry x="184" y="220" width="120" height="60" as="geometry"/>
                </mxCell>
                <mxCell id="35" value="" style="endArrow=none;html=1;rounded=0;entryX=0;entryY=0.5;entryDx=0;entryDy=0;strokeColor=#4D4D4D;strokeWidth=2;" edge="1" parent="1" source="34" target="13">
                    <mxGeometry relative="1" as="geometry">
                        <mxPoint x="284" y="180" as="sourcePoint"/>
                        <mxPoint x="274" y="120" as="targetPoint"/>
                    </mxGeometry>
                </mxCell>
                <mxCell id="36" value="1" style="resizable=0;html=1;align=right;verticalAlign=bottom;fontColor=#333333;" connectable="0" vertex="1" parent="35">
                    <mxGeometry x="1" relative="1" as="geometry">
                        <mxPoint x="-10" y="10" as="offset"/>
                    </mxGeometry>
                </mxCell>
                <mxCell id="38" value="Detalle" style="shape=rhombus;perimeter=rhombusPerimeter;whiteSpace=wrap;html=1;align=center;fillColor=#00C2C2;strokeColor=#808080;" vertex="1" parent="1">
                    <mxGeometry x="44" y="430" width="120" height="60" as="geometry"/>
                </mxCell>
                <mxCell id="41" value="" style="endArrow=none;html=1;rounded=0;exitX=0.5;exitY=1;exitDx=0;exitDy=0;entryX=0.5;entryY=0;entryDx=0;entryDy=0;strokeColor=#4D4D4D;strokeWidth=2;" edge="1" parent="1" source="38" target="14">
                    <mxGeometry relative="1" as="geometry">
                        <mxPoint x="230" y="590" as="sourcePoint"/>
                        <mxPoint x="104" y="544.5" as="targetPoint"/>
                    </mxGeometry>
                </mxCell>
                <mxCell id="42" value="N" style="resizable=0;html=1;align=right;verticalAlign=bottom;fontColor=#333333;" connectable="0" vertex="1" parent="41">
                    <mxGeometry x="1" relative="1" as="geometry">
                        <mxPoint x="-4" y="-4" as="offset"/>
                    </mxGeometry>
                </mxCell>
                <mxCell id="50" value="" style="endArrow=none;html=1;rounded=0;entryX=0.5;entryY=1;entryDx=0;entryDy=0;exitX=0.5;exitY=0;exitDx=0;exitDy=0;strokeColor=#4D4D4D;strokeWidth=2;" edge="1" parent="1" source="38" target="16">
                    <mxGeometry relative="1" as="geometry">
                        <mxPoint x="110" y="450" as="sourcePoint"/>
                        <mxPoint x="114" y="570" as="targetPoint"/>
                    </mxGeometry>
                </mxCell>
                <mxCell id="51" value="N" style="resizable=0;html=1;align=right;verticalAlign=bottom;fontColor=#333333;" connectable="0" vertex="1" parent="50">
                    <mxGeometry x="1" relative="1" as="geometry">
                        <mxPoint x="-4" y="20" as="offset"/>
                    </mxGeometry>
                </mxCell>
                <mxCell id="52" value="1" style="resizable=0;html=1;align=right;verticalAlign=bottom;fontColor=#333333;" connectable="0" vertex="1" parent="1">
                    <mxGeometry x="440" y="340" as="geometry"/>
                </mxCell>
            </root>
        </mxGraphModel>
    </diagram>
</mxfile>